<?xml version="1.0" encoding="UTF-8"?>
<svg width="148px" height="59px" viewBox="0 0 148 59" version="1.1" xmlns="http://www.w3.org/2000/svg" xmlns:xlink="http://www.w3.org/1999/xlink">
    <!-- Generator: Sketch 59.1 (86144) - https://sketch.com -->
    <title>Logo</title>
    <desc>Created with Sketch.</desc>
    <g id="Logo" stroke="none" stroke-width="1" fill="none" fill-rule="evenodd">
        <rect id="Rectangle" fill="#2C2C2C" x="0" y="0" width="148" height="59"></rect>
        <path d="M36.1327272,23.1046934 L36.1327272,31.8737585 C36.1327272,33.2695553 36.3909144,34.2850918 36.9072967,34.9203984 C37.4236789,35.555705 38.2451837,35.8733535 39.3718358,35.8733535 C40.4734512,35.8733535 41.254272,35.5744822 41.7143217,34.9767307 C42.1743713,34.3789791 42.4043926,33.3665722 42.4043926,31.9394795 L42.4043926,23.1046934 L44.1319172,23.1046934 L44.1319172,31.9113134 C44.1319172,33.8078444 43.7422892,35.1879726 42.9630215,36.0517392 C42.1837538,36.9155058 40.9428903,37.3473827 39.2403937,37.3473827 C37.5066013,37.3473827 36.2266185,36.8998581 35.400407,36.0047956 C34.5741954,35.1097331 34.1610958,33.7264754 34.1610958,31.8549811 L34.1610958,23.1046934 L36.1327272,23.1046934 Z M75.8550873,22.7573107 C76.756409,22.7573107 77.4996753,23.021757 78.0849085,23.5506576 C78.6701417,24.0795582 78.9627539,24.750845 78.9627539,25.5645382 C78.9627539,26.9540758 77.9456526,28.1620791 75.9114196,29.1885844 C76.8440372,30.8410075 77.9299884,32.3838718 79.1693057,33.8172237 C79.738891,32.9910121 80.0236793,31.8205633 80.0236793,30.3058421 L80.0142906,29.6110768 L81.8544798,29.6110768 C81.8544798,31.6640873 81.2410895,33.4354083 80.0142906,34.9250927 C80.5776166,35.6386391 81.2191728,36.3302679 81.9389783,37 L79.3101365,37 L78.6247599,36.1737926 C77.5982546,36.9561899 76.39964,37.3473827 75.0288799,37.3473827 C73.5767505,37.3473827 72.3828301,36.9264592 71.4470829,36.0845997 C70.5113358,35.2427402 70.0434692,34.170872 70.0434692,32.8689629 C70.0434692,30.7283239 71.1732339,29.2762163 73.4327974,28.5125965 C72.8068795,27.3796852 72.4939253,26.437693 72.4939253,25.6865916 C72.4939253,24.8666392 72.8209625,24.1734456 73.4750466,23.6069899 C74.1291308,23.0405343 74.9224697,22.7573107 75.8550873,22.7573107 Z M16.5769001,23.1046934 C18.2543599,23.1046934 19.4592337,23.3879169 20.1915576,23.9543726 C20.9238814,24.5208282 21.2900379,25.4518671 21.2900379,26.747517 C21.2900379,28.2246831 20.7893111,29.3826137 19.7878426,30.2213437 C18.786374,31.0600736 17.3968573,31.4794322 15.6192506,31.4794322 L14.7460996,31.4794322 L14.7460996,37 L12.7932457,37 L12.7932457,23.1046934 L16.5769001,23.1046934 Z M25.6929088,23.1046934 L25.6929088,35.5259708 L31.9457968,35.5259708 L31.9457968,37 L23.7212775,37 L23.7212775,23.1046934 L25.6929088,23.1046934 Z M50.6284729,23.1046934 L54.4778484,33.8547786 L58.4398885,23.1046934 L60.8809559,23.1046934 L60.8809559,37 L59.0407667,37 L59.0407667,25.6959803 L55.2101686,36.0705167 L53.3042583,36.0705167 L49.5863249,25.6678141 L49.5863249,37 L47.8963552,37 L47.8963552,23.1046934 L50.6284729,23.1046934 Z M95.0165881,23.1046934 C96.694048,23.1046934 97.8989217,23.3879169 98.6312456,23.9543726 C99.3635695,24.5208282 99.7297259,25.4518671 99.7297259,26.747517 C99.7297259,28.2246831 99.2289992,29.3826137 98.2275306,30.2213437 C97.2260621,31.0600736 95.8365453,31.4794322 94.0589386,31.4794322 L93.1857876,31.4794322 L93.1857876,37 L91.2329337,37 L91.2329337,23.1046934 L95.0165881,23.1046934 Z M109.925438,23.1046934 L109.925438,24.5787225 L104.132597,24.5787225 L104.132597,29.0383648 L108.986565,29.0383648 L108.986565,30.4936166 L104.132597,30.4936166 L104.132597,35.5259708 L110.329153,35.5259708 L110.329153,37 L102.160966,37 L102.160966,23.1046934 L109.925438,23.1046934 Z M118.712841,23.1046934 L124.139522,37 L122.008282,37 L120.496698,33.1506245 L114.60997,33.1506245 L113.079609,37 L111.248808,37 L116.759987,23.1046934 L118.712841,23.1046934 Z M130.654855,23.1046934 C131.98806,23.1046934 133.009855,23.3988703 133.720272,23.9872331 C134.430689,24.5755959 134.785892,25.4299609 134.785892,26.5503539 C134.785892,28.4030707 133.850159,29.7174784 131.978664,30.4936166 L136.616692,37 L134.194402,37 L130.241751,31.1226608 L128.401562,31.1226608 L128.401562,37 L126.448708,37 L126.448708,23.1046934 L130.654855,23.1046934 Z M74.0618417,29.6110768 C72.6159714,30.1869212 71.8930472,31.1226544 71.8930472,32.4183043 C71.8930472,33.4009953 72.2263434,34.2365831 72.8929459,34.9250927 C73.5595484,35.6136024 74.3716646,35.957852 75.3293189,35.957852 C76.1993447,35.957852 77.0286734,35.6730637 77.8173299,35.1034784 C76.5029025,33.4886104 75.2510856,31.6578282 74.0618417,29.6110768 Z M117.558028,25.6959803 L115.182682,31.6859841 L119.923986,31.6859841 L117.558028,25.6959803 Z M15.9572445,24.5787225 L14.7460996,24.5787225 L14.7460996,29.9866256 L15.5441408,29.9866256 C16.7146072,29.9866256 17.6190449,29.717485 18.2574811,29.1791957 C18.8959173,28.6409063 19.2151306,27.8804275 19.2151306,26.8977365 C19.2151306,26.0652658 18.9647672,25.4706528 18.464033,25.1138796 C17.9632987,24.7571064 17.1277109,24.5787225 15.9572445,24.5787225 Z M94.3969326,24.5787225 L93.1857876,24.5787225 L93.1857876,29.9866256 L93.9838289,29.9866256 C95.1542952,29.9866256 96.0587329,29.717485 96.6971691,29.1791957 C97.3356053,28.6409063 97.6548187,27.8804275 97.6548187,26.8977365 C97.6548187,26.0652658 97.4044553,25.4706528 96.903721,25.1138796 C96.4029867,24.7571064 95.5673989,24.5787225 94.3969326,24.5787225 Z M129.640873,24.5787225 L128.401562,24.5787225 L128.401562,29.6486317 L129.039995,29.6486317 C131.518629,29.6486317 132.757928,28.675344 132.757928,26.7287396 C132.757928,25.2953877 131.71892,24.5787225 129.640873,24.5787225 L129.640873,24.5787225 Z M75.7799775,24.1468414 C74.8285824,24.1468414 74.352892,24.6319204 74.352892,25.6020931 C74.352892,26.2405293 74.647069,27.0448216 75.2354317,28.0149943 C76.5623776,27.407854 77.2258405,26.6004321 77.2258405,25.5927043 C77.2258405,24.6287909 76.743891,24.1468414 75.7799775,24.1468414 Z" id="Combined-Shape" fill="#FFFFFF" fill-rule="nonzero"></path>
        <path d="M147,58 L1,58 L1,1 L147,1 L147,58 Z M143,5 L5,5 L5,54 L143,54 L143,5 Z" id="Stroke-13" fill="#FFFFFF" fill-rule="nonzero"></path>
    </g>
</svg>