<?xml version="1.0" encoding="UTF-8"?>
<svg width="24px" height="24px" viewBox="0 0 24 24" version="1.1" xmlns="http://www.w3.org/2000/svg" xmlns:xlink="http://www.w3.org/1999/xlink">
    <!-- Generator: Sketch 59.1 (86144) - https://sketch.com -->
    <title>Search / Alt 1</title>
    <desc>Created with Sketch.</desc>
    <defs>
        <path d="M10,0 C15.5228475,0 20,4.4771525 20,10 C20,12.3995053 19.1548784,14.6016219 17.7460549,16.32493 L23.71,22.28 C23.8993127,22.4677666 24.0057983,22.7233625 24.0057983,22.99 C24.0057983,23.2566375 23.8993127,23.5122334 23.71,23.7 C23.5229286,23.8908556 23.2672459,23.9988906 23,24.0000167 C22.734197,24.0015368 22.4787188,23.8971865 22.29,23.71 L16.3259284,17.7452386 C14.6024725,19.1545519 12.3999687,20 10,20 C4.4771525,20 0,15.5228475 0,10 C0,4.4771525 4.4771525,0 10,0 Z M10,2 C5.581722,2 2,5.581722 2,10 C2,14.418278 5.581722,18 10,18 C14.418278,18 18,14.418278 18,10 C18,7.87826808 17.1571453,5.84343678 15.6568542,4.34314575 C14.1565632,2.84285472 12.1217319,2 10,2 Z" id="path-1"></path>
    </defs>
    <g id="Search-/-Alt-1" stroke="none" stroke-width="1" fill="none" fill-rule="evenodd">
        <mask id="mask-2" fill="white">
            <use xlink:href="#path-1"></use>
        </mask>
        <use id="Combined-Shape" fill="#000000" fill-rule="nonzero" xlink:href="#path-1"></use>
        <rect id="Color-Layer" fill="#1E1E1E" mask="url(#mask-2)" x="0" y="0" width="24" height="24"></rect>
    </g>
</svg>