<?xml version="1.0" encoding="UTF-8"?>
<svg width="10px" height="10px" viewBox="0 0 10 10" version="1.1" xmlns="http://www.w3.org/2000/svg" xmlns:xlink="http://www.w3.org/1999/xlink">
    <!-- Generator: Sketch 59.1 (86144) - https://sketch.com -->
    <title>X</title>
    <desc>Created with Sketch.</desc>
    <defs>
        <path d="M8.71,7.29 L11.9992017,10.5798855 L15.29,7.29 C15.6821222,6.89787783 16.3178778,6.89787783 16.71,7.29 C17.1021222,7.68212217 17.1021222,8.31787783 16.71,8.71 L13.4192017,11.9998855 L16.71,15.29 C16.8993127,15.4777666 17.0057983,15.7333625 17.0057983,16 C17.0057983,16.2666375 16.8993127,16.5222334 16.71,16.71 C16.5212812,16.8971865 16.265803,17.0015368 16,17.0000167 C15.734197,17.0015368 15.4787188,16.8971865 15.29,16.71 L11.9992017,13.4198855 L8.71,16.71 C8.52128117,16.8971865 8.26580298,17.0015368 8,17.0000167 C7.73419702,17.0015368 7.47871883,16.8971865 7.29,16.71 C7.10068735,16.5222334 6.99420168,16.2666375 6.99420168,16 C6.99420168,15.7333625 7.10068735,15.4777666 7.29,15.29 L10.5792017,11.9998855 L7.29,8.71 C7.03634143,8.45634143 6.93727648,8.08662601 7.03012196,7.74012196 C7.12296744,7.39361791 7.39361791,7.12296744 7.74012196,7.03012196 C8.08662601,6.93727648 8.45634143,7.03634143 8.71,7.29 Z" id="path-1"></path>
    </defs>
    <g id="Icons-by-mad-lab.studio" stroke="none" stroke-width="1" fill="none" fill-rule="evenodd">
        <g id="Validation-/-Cross-x" transform="translate(-7.000000, -7.000000)">
            <mask id="mask-2" fill="white">
                <use xlink:href="#path-1"></use>
            </mask>
            <use id="X" fill="#000000" fill-rule="nonzero" xlink:href="#path-1"></use>
        </g>
    </g>
</svg>